<svg xmlns="http://www.w3.org/2000/svg" xmlns:xlink="http://www.w3.org/1999/xlink" width="500" zoomAndPan="magnify" viewBox="0 0 375 374.999991" height="500" preserveAspectRatio="xMidYMid meet" version="1.0"><defs><g/><clipPath id="eb4e466fe1"><path d="M 212 157.550781 L 268 157.550781 L 268 200 L 212 200 Z M 212 157.550781 " clip-rule="nonzero"/></clipPath><clipPath id="9d26631ef6"><path d="M 209.386719 163 L 288 163 L 288 215.300781 L 209.386719 215.300781 Z M 209.386719 163 " clip-rule="nonzero"/></clipPath></defs><path fill="#ffffff" d="M 246.515625 187.789062 C 245.675781 186.660156 244.410156 185.972656 243.503906 184.910156 C 243.078125 184.414062 242.730469 183.808594 242.667969 183.144531 C 242.617188 182.601562 242.722656 181.964844 243.175781 181.609375 C 243.550781 181.308594 244.09375 181.390625 244.46875 181.652344 C 244.582031 181.726562 244.675781 181.820312 244.75 181.933594 C 244.820312 182.046875 244.871094 182.167969 244.890625 182.300781 C 244.914062 182.433594 244.90625 182.566406 244.875 182.699219 C 244.839844 182.828125 244.78125 182.945312 244.695312 183.050781 C 244.265625 183.582031 243.558594 183.519531 243.015625 183.21875 C 242.472656 182.914062 241.769531 182.296875 241.839844 181.605469 C 241.902344 180.941406 242.5 180.472656 243.050781 180.210938 C 243.65625 179.925781 244.292969 179.820312 244.960938 179.902344 C 245.601562 179.988281 246.167969 180.246094 246.652344 180.671875 C 247.140625 181.097656 247.46875 181.621094 247.640625 182.246094 C 247.824219 182.8125 247.8125 183.378906 247.609375 183.9375 C 247.417969 184.394531 246.914062 184.828125 246.394531 184.777344 C 245.820312 184.726562 245.601562 184.105469 245.761719 183.625 C 245.957031 183.027344 246.527344 182.796875 247.109375 182.960938 C 247.773438 183.140625 248.332031 183.65625 248.722656 184.195312 C 249.117188 184.738281 249.386719 185.394531 249.3125 186.070312 C 249.257812 186.625 248.945312 187.242188 248.359375 187.378906 C 247.867188 187.496094 247.335938 187.253906 246.996094 186.898438 C 246.804688 186.699219 246.679688 186.460938 246.613281 186.191406 L 246.597656 186.320312 C 246.800781 186.003906 247.074219 185.769531 247.417969 185.617188 C 247.761719 185.46875 248.121094 185.425781 248.488281 185.496094 C 248.878906 185.5625 249.222656 185.730469 249.515625 185.996094 C 249.808594 186.261719 250.007812 186.585938 250.113281 186.96875 C 250.332031 187.667969 250.269531 188.539062 249.785156 189.113281 C 249.5625 189.398438 249.273438 189.523438 248.914062 189.480469 C 248.765625 189.464844 248.648438 189.394531 248.566406 189.269531 C 248.429688 189.03125 248.566406 188.75 248.71875 188.554688 C 249.59375 187.398438 251.40625 187.5625 252.398438 188.464844 C 252.703125 188.738281 252.929688 189.0625 253.078125 189.445312 C 253.183594 189.679688 253.210938 189.925781 253.160156 190.175781 C 253.105469 190.425781 252.953125 190.566406 252.703125 190.597656 C 252.285156 190.609375 252.054688 189.972656 251.976562 189.644531 C 251.886719 189.261719 251.894531 188.882812 252 188.503906 C 252.175781 187.867188 252.75 187.117188 253.496094 187.308594 C 253.746094 187.375 254.207031 187.753906 253.742188 187.902344 C 253.28125 188.050781 252.933594 187.617188 252.730469 187.285156 C 252.453125 186.828125 252.234375 186.332031 251.992188 185.855469 C 251.746094 185.375 251.445312 184.84375 251.417969 184.28125 C 251.398438 183.882812 251.59375 183.363281 252.046875 183.300781 C 252.441406 183.246094 252.644531 183.648438 252.640625 183.984375 C 252.644531 184.183594 252.578125 184.351562 252.441406 184.492188 C 252.304688 184.632812 252.136719 184.703125 251.9375 184.703125 C 251.457031 184.71875 251.03125 184.414062 250.726562 184.070312 C 250.414062 183.679688 250.148438 183.261719 249.929688 182.8125 C 249.65625 182.34375 249.445312 181.851562 249.296875 181.328125 C 249.105469 180.585938 249.183594 179.359375 250.085938 179.101562 C 250.449219 179 250.996094 179.28125 250.746094 179.703125 C 250.519531 180.050781 250.199219 180.253906 249.792969 180.3125 C 248.980469 180.460938 248.113281 180.101562 247.46875 179.640625 C 246.742188 179.105469 246.164062 178.441406 245.734375 177.648438 C 244.910156 176.164062 244.628906 174.214844 245.585938 172.722656 C 246.460938 171.351562 248.214844 170.636719 249.734375 171.367188 C 250.628906 171.796875 251.355469 172.550781 251.945312 173.332031 C 252.554688 174.125 253 175 253.285156 175.957031 C 253.589844 177.03125 253.597656 178.144531 253.589844 179.25 C 253.578125 180.390625 253.621094 181.523438 253.722656 182.660156 C 253.964844 184.941406 254.355469 187.199219 254.890625 189.429688 C 255.136719 190.5 255.363281 191.574219 255.660156 192.632812 C 255.867188 193.371094 256.15625 194.164062 256.714844 194.714844 C 257.242188 195.230469 258.035156 195.417969 258.671875 194.960938 C 259.308594 194.503906 259.589844 193.449219 258.980469 192.847656 C 258.375 192.246094 257.453125 192.78125 256.800781 193.027344 C 255.921875 193.359375 255.011719 193.128906 254.179688 192.773438 C 253.285156 192.386719 252.449219 191.871094 251.550781 191.492188 C 250.59375 191.085938 249.578125 190.921875 248.554688 190.808594 C 247.5 190.695312 246.441406 190.609375 245.414062 190.3125 C 244.546875 190.039062 243.722656 189.675781 242.9375 189.21875 C 241.285156 188.289062 239.800781 187.117188 238.230469 186.082031 C 237.46875 185.574219 236.675781 185.121094 235.855469 184.726562 C 235.78125 184.679688 235.714844 184.691406 235.652344 184.75 C 235.59375 184.808594 235.585938 184.878906 235.628906 184.949219 C 236.96875 187.242188 238.109375 189.632812 239.042969 192.121094 L 239.160156 191.917969 C 238.515625 192.082031 238.003906 191.371094 237.703125 190.902344 C 237.273438 190.226562 236.925781 189.492188 236.546875 188.789062 L 234.105469 184.269531 L 233.882812 184.496094 C 234.136719 184.609375 234.0625 184.976562 233.902344 185.15625 C 233.640625 185.429688 233.089844 185.257812 232.765625 185.230469 C 232.421875 185.199219 232.097656 185.261719 231.789062 185.410156 C 231.480469 185.554688 231.226562 185.773438 231.035156 186.054688 C 230.640625 186.683594 230.574219 187.34375 230.839844 188.039062 C 231.101562 188.746094 231.585938 189.234375 232.292969 189.5 C 232.988281 189.78125 233.746094 189.820312 234.464844 190.019531 C 235.171875 190.21875 235.792969 190.574219 236.320312 191.082031 C 237.386719 192.101562 237.929688 193.621094 237.4375 195.046875 C 237.230469 195.691406 236.835938 196.1875 236.253906 196.53125 C 235.484375 196.957031 234.546875 196.8125 233.753906 196.554688 C 232.195312 196.027344 230.988281 195.058594 230.136719 193.652344 C 229.921875 193.289062 229.714844 192.824219 229.832031 192.398438 C 229.9375 192.035156 230.265625 191.835938 230.601562 191.734375 C 231.371094 191.503906 232.253906 191.582031 233.039062 191.703125 C 234.699219 191.964844 236.296875 192.578125 237.992188 192.675781 C 239.75 192.78125 241.382812 192.015625 243.109375 191.851562 C 244.777344 191.695312 246.414062 191.851562 248.019531 192.328125 C 248.828125 192.5625 249.609375 192.871094 250.363281 193.253906 C 251.085938 193.617188 251.828125 194.015625 252.382812 194.617188 C 252.851562 195.125 253.304688 195.964844 252.710938 196.5625 C 252.441406 196.832031 252.050781 196.992188 251.722656 197.148438 C 251.34375 197.320312 250.953125 197.472656 250.558594 197.601562 C 247.292969 198.664062 243.746094 198.261719 240.445312 197.601562 C 238.761719 197.269531 237.085938 196.871094 235.421875 196.445312 C 233.757812 196.019531 232.128906 195.546875 230.582031 194.820312 C 229.019531 194.078125 227.628906 193.097656 226.410156 191.867188 C 225.179688 190.632812 224.117188 189.246094 223.074219 187.851562 C 222.03125 186.460938 220.96875 185.0625 220.167969 183.511719 C 219.789062 182.769531 219.484375 182 219.253906 181.199219 C 219.085938 180.550781 218.851562 179.925781 218.546875 179.328125 C 218.265625 178.835938 217.859375 178.402344 217.289062 178.246094 C 217.082031 178.1875 217.007812 178.488281 217.203125 178.566406 C 218.523438 179.089844 219.933594 178.964844 221.304688 178.769531 C 222.628906 178.582031 223.921875 178.390625 225.253906 178.558594 C 227.496094 178.84375 229.441406 180.042969 231.097656 181.519531 C 232.117188 182.457031 233.082031 183.453125 233.984375 184.503906 C 234.125 184.671875 234.359375 184.429688 234.21875 184.273438 C 232.648438 182.488281 230.976562 180.6875 228.902344 179.484375 C 227.960938 178.929688 226.957031 178.542969 225.886719 178.328125 C 224.636719 178.085938 223.390625 178.140625 222.136719 178.316406 C 220.523438 178.542969 218.859375 178.867188 217.289062 178.246094 L 217.203125 178.5625 C 217.847656 178.742188 218.214844 179.332031 218.46875 179.914062 C 218.765625 180.59375 218.921875 181.324219 219.167969 182.023438 C 219.765625 183.746094 220.777344 185.28125 221.84375 186.746094 C 223.941406 189.617188 226.101562 192.664062 229.234375 194.480469 C 230.773438 195.371094 232.453125 195.96875 234.160156 196.449219 C 235.863281 196.933594 237.625 197.332031 239.375 197.707031 C 242.796875 198.445312 246.457031 199.011719 249.910156 198.125 C 250.742188 197.914062 251.539062 197.613281 252.300781 197.226562 C 252.648438 197.074219 252.933594 196.84375 253.148438 196.535156 C 253.328125 196.234375 253.378906 195.910156 253.304688 195.570312 C 253.160156 194.84375 252.5625 194.238281 251.984375 193.8125 C 251.265625 193.3125 250.496094 192.898438 249.683594 192.578125 C 248.085938 191.890625 246.421875 191.523438 244.6875 191.46875 C 243.847656 191.445312 243.011719 191.503906 242.183594 191.648438 C 241.257812 191.8125 240.367188 192.125 239.4375 192.28125 C 237.621094 192.589844 235.855469 191.972656 234.109375 191.585938 C 233.253906 191.371094 232.386719 191.269531 231.503906 191.285156 C 230.835938 191.3125 229.964844 191.425781 229.613281 192.085938 C 229.207031 192.835938 229.730469 193.710938 230.179688 194.3125 C 230.660156 194.96875 231.234375 195.527344 231.898438 195.996094 C 232.554688 196.460938 233.269531 196.792969 234.046875 196.996094 C 234.851562 197.199219 235.746094 197.226562 236.484375 196.789062 C 237.6875 196.070312 238.148438 194.476562 237.871094 193.15625 C 237.5625 191.691406 236.425781 190.445312 235.054688 189.878906 C 233.683594 189.3125 231.648438 189.589844 231.113281 187.835938 C 230.890625 187.097656 231.074219 186.25 231.746094 185.808594 C 232.078125 185.59375 232.441406 185.515625 232.832031 185.570312 C 233.207031 185.609375 233.65625 185.714844 233.996094 185.5 C 234.410156 185.238281 234.554688 184.453125 234.042969 184.21875 C 233.96875 184.175781 233.902344 184.183594 233.839844 184.246094 C 233.78125 184.304688 233.769531 184.371094 233.816406 184.445312 L 235.871094 188.269531 L 236.898438 190.132812 C 237.183594 190.660156 237.449219 191.199219 237.851562 191.648438 C 238.210938 192.050781 238.695312 192.375 239.25 192.234375 C 239.355469 192.207031 239.394531 192.136719 239.363281 192.03125 C 238.417969 189.515625 237.265625 187.097656 235.90625 184.777344 L 235.679688 185.003906 C 238.363281 186.269531 240.558594 188.332031 243.167969 189.714844 C 243.792969 190.050781 244.441406 190.328125 245.113281 190.554688 C 245.871094 190.785156 246.644531 190.941406 247.4375 191.019531 C 248.289062 191.113281 249.144531 191.175781 249.984375 191.347656 C 250.78125 191.527344 251.535156 191.804688 252.253906 192.183594 C 253.480469 192.804688 254.847656 193.695312 256.289062 193.496094 C 256.949219 193.402344 257.519531 192.957031 258.183594 192.902344 C 259.019531 192.832031 259.136719 193.867188 258.75 194.410156 C 258.660156 194.535156 258.550781 194.640625 258.417969 194.71875 C 258.289062 194.800781 258.148438 194.851562 257.996094 194.875 C 257.84375 194.894531 257.691406 194.886719 257.542969 194.847656 C 257.394531 194.808594 257.261719 194.742188 257.140625 194.644531 C 256.644531 194.292969 256.363281 193.683594 256.160156 193.132812 C 255.921875 192.402344 255.726562 191.660156 255.574219 190.910156 C 255.359375 190.023438 255.15625 189.136719 254.960938 188.246094 C 254.5625 186.464844 254.265625 184.667969 254.070312 182.855469 C 253.980469 181.960938 253.929688 181.0625 253.917969 180.167969 C 253.90625 179.269531 253.949219 178.398438 253.878906 177.515625 C 253.761719 175.898438 253.210938 174.445312 252.230469 173.15625 C 251.390625 172.042969 250.246094 170.910156 248.789062 170.746094 C 247.589844 170.609375 246.386719 171.191406 245.625 172.101562 C 244.777344 173.113281 244.519531 174.421875 244.714844 175.707031 C 244.945312 177.105469 245.558594 178.296875 246.566406 179.292969 C 247.421875 180.148438 248.722656 180.910156 249.976562 180.601562 C 250.472656 180.476562 251.195312 180.023438 251.132812 179.425781 C 251.070312 178.828125 250.359375 178.628906 249.886719 178.808594 C 249.3125 179.03125 248.988281 179.621094 248.894531 180.199219 C 248.769531 180.945312 249.007812 181.683594 249.324219 182.359375 C 249.640625 183.035156 250.015625 183.78125 250.53125 184.339844 C 250.964844 184.8125 251.664062 185.195312 252.316406 184.949219 C 252.835938 184.75 253.054688 184.164062 252.921875 183.640625 C 252.894531 183.511719 252.839844 183.394531 252.757812 183.289062 C 252.675781 183.183594 252.574219 183.101562 252.453125 183.046875 C 252.332031 182.988281 252.203125 182.960938 252.070312 182.964844 C 251.9375 182.96875 251.8125 183 251.695312 183.0625 C 251.074219 183.390625 250.992188 184.144531 251.15625 184.757812 C 251.277344 185.15625 251.4375 185.535156 251.640625 185.902344 C 251.839844 186.292969 252.039062 186.6875 252.238281 187.082031 C 252.519531 187.628906 252.945312 188.304688 253.65625 188.238281 C 253.890625 188.214844 254.199219 188.070312 254.261719 187.816406 C 254.324219 187.589844 254.160156 187.320312 253.992188 187.183594 C 253.78125 187.027344 253.546875 186.945312 253.285156 186.933594 C 253.023438 186.925781 252.78125 186.992188 252.5625 187.136719 C 252.078125 187.460938 251.773438 187.910156 251.652344 188.476562 C 251.503906 189.070312 251.558594 189.644531 251.816406 190.195312 C 251.945312 190.464844 252.144531 190.757812 252.433594 190.867188 C 252.730469 190.972656 252.988281 190.910156 253.210938 190.683594 C 253.730469 190.179688 253.457031 189.347656 253.121094 188.820312 C 252.820312 188.347656 252.417969 187.988281 251.917969 187.738281 C 250.988281 187.277344 249.78125 187.246094 248.917969 187.875 C 248.480469 188.207031 247.960938 188.808594 248.246094 189.382812 C 248.480469 189.847656 249.097656 189.878906 249.523438 189.699219 C 250.015625 189.484375 250.328125 188.945312 250.464844 188.445312 C 250.617188 187.855469 250.585938 187.277344 250.375 186.707031 C 250.277344 186.433594 250.136719 186.183594 249.945312 185.960938 C 249.757812 185.742188 249.539062 185.558594 249.28125 185.421875 C 249.027344 185.28125 248.757812 185.191406 248.46875 185.148438 C 248.179688 185.109375 247.894531 185.121094 247.613281 185.1875 C 247.339844 185.25 247.089844 185.367188 246.863281 185.527344 C 246.625 185.683594 246.441406 185.886719 246.308594 186.136719 C 246.21875 186.359375 246.460938 186.730469 246.585938 186.902344 C 246.75 187.132812 246.957031 187.320312 247.203125 187.460938 C 247.691406 187.773438 248.203125 187.808594 248.734375 187.578125 C 249.296875 187.292969 249.582031 186.652344 249.640625 186.054688 C 249.777344 184.660156 248.648438 183.164062 247.378906 182.6875 C 246.8125 182.472656 246.136719 182.523438 245.730469 183.015625 C 245.546875 183.226562 245.433594 183.46875 245.394531 183.746094 C 245.355469 184.019531 245.398438 184.285156 245.515625 184.535156 C 245.652344 184.78125 245.851562 184.949219 246.113281 185.042969 C 246.375 185.136719 246.632812 185.132812 246.894531 185.03125 C 247.460938 184.820312 247.828125 184.417969 247.992188 183.835938 C 248.34375 182.613281 247.789062 181.210938 246.859375 180.394531 C 245.789062 179.453125 244.214844 179.3125 242.945312 179.898438 C 242.34375 180.171875 241.773438 180.636719 241.570312 181.292969 C 241.34375 182.023438 241.789062 182.652344 242.320312 183.109375 C 242.816406 183.542969 243.5 183.910156 244.183594 183.746094 C 244.484375 183.675781 244.734375 183.519531 244.929688 183.28125 C 245.128906 183.042969 245.234375 182.769531 245.246094 182.460938 C 245.253906 181.394531 243.84375 180.679688 242.992188 181.332031 C 241.894531 182.171875 242.324219 183.867188 243.011719 184.8125 C 243.910156 186.039062 245.324219 186.738281 246.234375 187.949219 C 246.363281 188.113281 246.648438 187.949219 246.519531 187.785156 Z M 246.515625 187.789062 " fill-opacity="1" fill-rule="nonzero"/><g clip-path="url(#eb4e466fe1)"><path fill="#ffffff" d="M 256.21875 193.183594 C 257.886719 188.945312 259.546875 184.648438 261.941406 180.75 C 262.53125 179.796875 263.171875 178.882812 263.867188 178.011719 C 264.589844 177.105469 265.339844 176.210938 265.9375 175.214844 C 267.058594 173.355469 267.589844 170.921875 266.523438 168.914062 C 265.699219 167.351562 263.296875 166.128906 261.808594 167.566406 L 262.070312 167.765625 C 262.832031 166.21875 263.574219 164.539062 263.09375 162.785156 C 262.738281 161.5 261.652344 160.277344 260.199219 160.597656 C 259.863281 160.664062 259.574219 160.816406 259.332031 161.054688 C 259.089844 161.296875 258.9375 161.585938 258.867188 161.917969 L 259.1875 162.007812 C 259.398438 160.4375 257.863281 159.078125 256.339844 159.386719 C 255.542969 159.550781 254.90625 160.078125 254.441406 160.722656 C 254.085938 161.214844 253.339844 162.386719 252.640625 161.710938 C 252.121094 161.214844 252.074219 160.359375 251.269531 160.15625 C 250.515625 159.960938 249.730469 160.425781 249.125 160.824219 C 247.800781 161.707031 246.777344 162.855469 246.054688 164.273438 C 245.183594 165.957031 244.800781 167.746094 244.898438 169.640625 C 244.898438 169.75 244.953125 169.808594 245.0625 169.808594 C 247.023438 169.660156 248.320312 167.824219 248.453125 165.96875 C 248.617188 163.722656 247.390625 161.546875 245.71875 160.132812 C 244.867188 159.425781 243.933594 158.859375 242.910156 158.433594 C 241.878906 157.984375 240.664062 157.542969 239.511719 157.816406 C 239.054688 157.929688 238.667969 158.15625 238.351562 158.5 C 238.035156 158.847656 237.839844 159.25 237.769531 159.714844 C 237.703125 160.195312 237.796875 160.640625 238.050781 161.050781 C 238.277344 161.445312 238.792969 161.964844 238.636719 162.464844 C 238.457031 163.035156 237.597656 162.890625 237.164062 162.820312 C 236.523438 162.714844 235.890625 162.558594 235.257812 162.425781 C 234.042969 162.171875 232.757812 162 231.617188 162.601562 C 231.5625 162.632812 231.535156 162.679688 231.535156 162.742188 C 231.613281 163.542969 231.984375 164.171875 232.648438 164.628906 C 233.371094 165.160156 234.273438 165.3125 235.140625 165.425781 C 236.144531 165.5625 237.152344 165.695312 238.15625 165.828125 C 239.011719 165.941406 239.878906 166.015625 240.710938 166.238281 C 241.371094 166.414062 242.050781 166.699219 242.5 167.238281 C 243.058594 167.910156 243.0625 168.78125 242.785156 169.570312 C 242.507812 170.359375 242.023438 171.089844 241.710938 171.878906 C 241.449219 172.554688 241.335938 173.257812 241.378906 173.980469 C 241.460938 175.605469 242.214844 177.226562 243.5 178.242188 C 243.5625 178.304688 243.628906 178.3125 243.703125 178.269531 C 244.195312 177.914062 244.304688 177.277344 244.179688 176.707031 C 244.027344 176.011719 243.519531 175.488281 242.925781 175.136719 C 242.1875 174.703125 241.320312 174.445312 240.503906 174.210938 C 239.667969 173.945312 238.808594 173.796875 237.929688 173.765625 C 237.304688 173.765625 236.628906 173.882812 236.113281 174.261719 C 235.863281 174.457031 235.679688 174.699219 235.558594 174.992188 C 235.4375 175.28125 235.398438 175.585938 235.4375 175.898438 C 235.625 177.476562 237.140625 178.347656 238.378906 179.046875 C 239.058594 179.429688 239.753906 179.851562 240.195312 180.507812 C 240.375 180.777344 240.5 181.070312 240.570312 181.382812 C 240.636719 181.699219 240.648438 182.015625 240.601562 182.335938 C 240.550781 182.65625 240.449219 182.953125 240.289062 183.234375 C 240.128906 183.515625 239.925781 183.757812 239.675781 183.964844 C 239.03125 184.4375 238.230469 184.34375 237.519531 184.085938 C 236.667969 183.757812 235.871094 183.328125 235.121094 182.808594 C 234.382812 182.316406 233.691406 181.765625 233.042969 181.15625 C 231.910156 180.089844 230.433594 178.546875 230.964844 176.839844 C 231.171875 176.164062 231.757812 175.671875 232.480469 175.917969 C 233.082031 176.121094 233.5625 176.78125 233.28125 177.417969 C 233.023438 177.996094 232.269531 178.140625 231.703125 178.132812 C 230.988281 178.101562 230.320312 177.910156 229.695312 177.5625 C 228.984375 177.203125 228.460938 176.664062 228.125 175.941406 C 227.828125 175.203125 227.816406 174.457031 228.097656 173.710938 C 228.664062 172.117188 230.242188 171.398438 231.839844 171.335938 C 233.742188 171.261719 235.578125 171.910156 237.4375 172.101562 C 238.464844 172.207031 240.199219 171.933594 240.011719 170.527344 C 239.925781 169.894531 239.40625 169.464844 238.867188 169.191406 C 238.160156 168.835938 237.363281 168.667969 236.617188 168.414062 C 234.8125 167.800781 233.070312 167.054688 231.386719 166.167969 C 229.761719 165.3125 228.210938 164.25 226.453125 163.679688 C 224.964844 163.195312 223.148438 163.085938 221.828125 164.058594 C 220.710938 164.882812 220.117188 166.378906 220.449219 167.738281 C 220.78125 169.101562 221.933594 170.003906 223.171875 170.546875 C 223.78125 170.8125 224.410156 171.03125 225.054688 171.207031 C 225.160156 171.246094 225.230469 171.214844 225.269531 171.109375 C 225.308594 171.007812 225.277344 170.933594 225.171875 170.894531 C 223.355469 169.597656 221.0625 168.933594 218.824219 169.191406 C 218.300781 169.253906 217.785156 169.363281 217.28125 169.523438 C 216.8125 169.644531 216.382812 169.855469 215.996094 170.148438 C 215.050781 170.964844 215.824219 172.199219 216.277344 173.070312 C 216.925781 174.300781 217.707031 175.441406 218.617188 176.492188 L 218.847656 176.257812 C 218.148438 175.652344 217.390625 175.128906 216.574219 174.695312 C 216.179688 174.484375 215.777344 174.300781 215.359375 174.136719 C 214.9375 173.972656 214.488281 173.808594 214.027344 173.863281 C 212.457031 174.046875 212.359375 176.367188 212.238281 177.550781 C 211.859375 181.183594 212.222656 185.144531 214.714844 188.003906 C 215.828125 189.28125 217.296875 190.046875 218.910156 190.484375 C 220.5625 190.933594 222.289062 191.109375 223.910156 191.695312 C 224.761719 192 225.535156 192.441406 226.234375 193.015625 C 226.910156 193.59375 227.535156 194.21875 228.121094 194.886719 C 229.332031 196.226562 230.570312 197.484375 232.195312 198.3125 C 233.773438 199.132812 235.453125 199.488281 237.226562 199.378906 C 239.160156 199.242188 241.027344 198.574219 242.960938 198.5 C 243.457031 198.480469 243.953125 198.507812 244.445312 198.585938 C 244.652344 198.617188 244.742188 198.296875 244.535156 198.265625 C 242.730469 197.976562 240.957031 198.429688 239.191406 198.761719 C 238.261719 198.964844 237.316406 199.070312 236.363281 199.066406 C 235.515625 199.042969 234.6875 198.902344 233.878906 198.644531 C 232.191406 198.09375 230.734375 197.175781 229.507812 195.898438 C 228.324219 194.699219 227.300781 193.324219 225.910156 192.347656 C 223.175781 190.429688 219.558594 190.910156 216.707031 189.234375 C 213.628906 187.417969 212.476562 183.605469 212.433594 180.238281 C 212.425781 179.269531 212.476562 178.300781 212.589844 177.339844 C 212.675781 176.558594 212.742188 175.703125 213.097656 174.984375 C 213.234375 174.664062 213.460938 174.425781 213.769531 174.265625 C 214.203125 174.078125 214.683594 174.234375 215.101562 174.390625 C 215.960938 174.710938 216.769531 175.132812 217.527344 175.652344 C 217.90625 175.910156 218.269531 176.191406 218.617188 176.488281 C 218.695312 176.554688 218.769531 176.554688 218.839844 176.480469 C 218.914062 176.410156 218.914062 176.335938 218.847656 176.257812 C 218.113281 175.40625 217.46875 174.496094 216.90625 173.523438 C 216.625 173.027344 216.359375 172.523438 216.125 172.007812 C 215.890625 171.488281 215.691406 170.933594 216.125 170.480469 C 216.457031 170.132812 216.953125 169.96875 217.40625 169.820312 C 217.871094 169.675781 218.34375 169.574219 218.824219 169.515625 C 219.824219 169.402344 220.816406 169.464844 221.796875 169.703125 C 222.964844 169.988281 224.035156 170.480469 225.007812 171.179688 L 225.136719 170.878906 C 223.816406 170.503906 222.363281 170.03125 221.4375 168.949219 C 221.191406 168.660156 221.007812 168.335938 220.878906 167.980469 C 220.753906 167.625 220.691406 167.257812 220.695312 166.878906 C 220.699219 166.5 220.765625 166.132812 220.902344 165.78125 C 221.035156 165.425781 221.230469 165.105469 221.476562 164.820312 C 222.632812 163.476562 224.570312 163.464844 226.144531 163.925781 C 227.960938 164.464844 229.554688 165.578125 231.222656 166.449219 C 232.871094 167.316406 234.578125 168.054688 236.339844 168.664062 C 237.117188 168.933594 237.964844 169.101562 238.699219 169.472656 C 239.265625 169.757812 239.921875 170.332031 239.632812 171.042969 C 239.394531 171.632812 238.59375 171.792969 238.035156 171.804688 C 237.101562 171.820312 236.148438 171.578125 235.238281 171.398438 C 233.585938 171.066406 231.789062 170.738281 230.148438 171.320312 C 229.457031 171.554688 228.878906 171.953125 228.417969 172.519531 C 227.960938 173.085938 227.6875 173.734375 227.601562 174.457031 C 227.4375 175.945312 228.316406 177.226562 229.605469 177.894531 C 230.632812 178.421875 232.195312 178.839844 233.203125 178.046875 C 233.425781 177.871094 233.578125 177.648438 233.652344 177.371094 C 233.726562 177.097656 233.714844 176.828125 233.613281 176.5625 C 233.496094 176.289062 233.320312 176.0625 233.085938 175.882812 C 232.851562 175.699219 232.585938 175.589844 232.292969 175.546875 C 230.84375 175.335938 230.351562 177.128906 230.609375 178.238281 C 230.796875 179.046875 231.269531 179.757812 231.8125 180.375 C 232.398438 181.039062 233.035156 181.648438 233.726562 182.203125 C 234.398438 182.746094 235.109375 183.234375 235.859375 183.660156 C 236.585938 184.074219 237.375 184.5 238.21875 184.617188 C 239.539062 184.804688 240.582031 183.902344 240.878906 182.648438 C 241.035156 182.039062 240.996094 181.4375 240.761719 180.851562 C 240.488281 180.191406 239.957031 179.679688 239.375 179.28125 C 238.113281 178.40625 236.382812 177.878906 235.859375 176.261719 C 235.621094 175.535156 235.847656 174.777344 236.53125 174.402344 C 237.15625 174.0625 237.921875 174.070312 238.605469 174.152344 C 239.597656 174.292969 240.5625 174.539062 241.5 174.886719 C 242.261719 175.15625 243.113281 175.46875 243.589844 176.164062 C 243.929688 176.660156 244.109375 177.585938 243.535156 177.992188 L 243.734375 178.019531 C 243.152344 177.542969 242.683594 176.96875 242.335938 176.300781 C 241.988281 175.632812 241.78125 174.925781 241.722656 174.175781 C 241.65625 173.460938 241.742188 172.765625 241.984375 172.089844 C 242.273438 171.304688 242.742188 170.601562 243.046875 169.820312 C 243.324219 169.101562 243.414062 168.332031 243.105469 167.605469 C 242.824219 167.003906 242.378906 166.5625 241.777344 166.285156 C 241.152344 165.996094 240.5 165.8125 239.820312 165.726562 C 238.867188 165.585938 237.910156 165.472656 236.953125 165.34375 C 235.902344 165.207031 234.789062 165.152344 233.773438 164.828125 C 232.839844 164.527344 231.9375 163.792969 231.863281 162.75 L 231.78125 162.890625 C 232.773438 162.371094 233.929688 162.5 234.984375 162.710938 C 235.535156 162.820312 236.078125 162.957031 236.625 163.0625 C 237.074219 163.152344 237.554688 163.261719 238.015625 163.210938 C 238.359375 163.175781 238.714844 163.046875 238.890625 162.714844 C 239.089844 162.347656 238.964844 161.929688 238.773438 161.585938 C 238.535156 161.15625 238.183594 160.78125 238.097656 160.28125 C 238.03125 159.792969 238.140625 159.347656 238.425781 158.945312 C 239.085938 157.976562 240.320312 157.964844 241.355469 158.226562 C 242.421875 158.515625 243.421875 158.957031 244.355469 159.546875 C 246.1875 160.683594 247.660156 162.449219 248.0625 164.609375 C 248.300781 165.753906 248.128906 166.832031 247.550781 167.847656 C 247.019531 168.734375 246.128906 169.410156 245.074219 169.488281 L 245.242188 169.652344 C 245.074219 166.628906 246.277344 163.511719 248.65625 161.578125 C 249.214844 161.125 249.90625 160.628906 250.621094 160.476562 C 250.820312 160.421875 251.019531 160.425781 251.21875 160.492188 C 251.414062 160.558594 251.578125 160.671875 251.707031 160.835938 C 251.910156 161.105469 252.023438 161.429688 252.214844 161.707031 C 252.570312 162.21875 253.160156 162.414062 253.703125 162.050781 C 254.300781 161.644531 254.59375 160.957031 255.09375 160.453125 C 255.738281 159.808594 256.746094 159.429688 257.613281 159.835938 C 258.382812 160.1875 258.988281 161.054688 258.871094 161.921875 C 258.84375 162.125 259.148438 162.222656 259.191406 162.007812 C 259.328125 161.296875 259.976562 160.882812 260.675781 160.886719 C 261.484375 160.886719 262.113281 161.449219 262.480469 162.128906 C 263.457031 163.945312 262.617188 165.929688 261.785156 167.613281 C 261.75 167.691406 261.765625 167.757812 261.835938 167.8125 C 261.90625 167.863281 261.976562 167.863281 262.042969 167.808594 C 263.375 166.519531 265.511719 167.722656 266.238281 169.089844 C 267.328125 171.140625 266.621094 173.582031 265.429688 175.410156 C 264.804688 176.375 264.054688 177.246094 263.347656 178.148438 C 262.730469 178.941406 262.160156 179.765625 261.636719 180.625 C 260.515625 182.492188 259.519531 184.425781 258.648438 186.425781 C 257.65625 188.621094 256.78125 190.863281 255.894531 193.101562 C 255.820312 193.300781 256.136719 193.386719 256.214844 193.1875 Z M 256.21875 193.183594 " fill-opacity="1" fill-rule="nonzero"/></g><g clip-path="url(#9d26631ef6)"><path fill="#ffffff" d="M 221.046875 190.664062 C 219.625 190.828125 218.203125 190.386719 216.78125 190.382812 C 215.601562 190.386719 214.453125 190.59375 213.34375 191 C 211.316406 191.730469 209.550781 193.261719 209.484375 195.5625 C 209.414062 198.234375 211.542969 200.457031 213.535156 201.949219 C 215.976562 203.773438 218.644531 205.15625 221.539062 206.105469 C 222.980469 206.574219 224.449219 206.917969 225.949219 207.128906 C 227.464844 207.34375 228.996094 207.421875 230.511719 207.617188 C 232.097656 207.820312 233.679688 208.171875 235.109375 208.910156 C 236.390625 209.582031 237.503906 210.46875 238.445312 211.566406 C 239.296875 212.558594 239.851562 213.824219 240.84375 214.683594 C 241.53125 215.277344 242.539062 215.5 243.140625 214.664062 C 243.660156 213.941406 243.636719 212.9375 243.832031 212.101562 C 243.933594 211.675781 244.09375 211.203125 244.492188 210.964844 C 245.136719 210.578125 246.097656 210.992188 246.742188 211.21875 C 249.464844 212.175781 251.886719 214.066406 254.761719 214.59375 C 256.769531 214.964844 259.203125 214.667969 260.53125 212.945312 C 261.320312 211.921875 261.308594 210.644531 261.835938 209.515625 C 262.464844 208.175781 263.886719 208.089844 265.1875 208.109375 C 266.492188 208.128906 267.710938 208.097656 268.933594 207.585938 C 270.15625 207.074219 271.265625 206.234375 272.234375 205.304688 C 273.207031 204.378906 274.121094 203.324219 274.382812 202.003906 C 274.617188 200.828125 274.21875 199.675781 273.464844 198.769531 C 272.710938 197.867188 271.632812 197.207031 270.527344 196.789062 C 269.804688 196.519531 268.996094 196.359375 268.417969 195.816406 C 267.941406 195.375 267.53125 194.460938 268.097656 193.917969 C 268.472656 193.5625 269.09375 193.648438 269.546875 193.789062 C 270.144531 193.976562 270.605469 194.335938 271.070312 194.742188 C 271.878906 195.441406 273.078125 196.558594 274.242188 195.992188 C 275.160156 195.550781 275.332031 194.257812 274.824219 193.453125 C 274.527344 192.976562 273.8125 192.472656 273.816406 191.871094 C 273.816406 191.109375 274.910156 191.453125 275.355469 191.492188 C 276.464844 191.589844 277.074219 190.695312 277.382812 189.738281 C 277.75 188.601562 277.851562 187.441406 277.679688 186.253906 C 277.5 185.152344 276.800781 184.132812 275.625 183.972656 C 274.304688 183.796875 273.238281 184.644531 272.476562 185.625 C 272.066406 186.152344 271.710938 186.722656 271.320312 187.261719 C 270.878906 187.859375 270.398438 188.421875 269.878906 188.953125 C 268.875 189.960938 267.777344 190.859375 266.589844 191.644531 C 265.425781 192.421875 264.222656 193.136719 262.980469 193.792969 C 262.359375 194.121094 261.726562 194.453125 261.097656 194.78125 C 260.410156 195.132812 259.722656 195.515625 258.972656 195.703125 C 258.21875 195.890625 257.472656 195.828125 256.835938 195.371094 C 256.261719 194.972656 255.867188 194.339844 255.929688 193.625 C 255.949219 193.429688 255.667969 193.421875 255.601562 193.582031 C 255.152344 194.777344 253.71875 195.1875 253.039062 196.226562 C 252.398438 197.207031 252.28125 198.457031 252.480469 199.589844 C 252.941406 202.234375 255.207031 204.097656 257.722656 204.726562 C 259.246094 205.105469 260.835938 205.03125 262.371094 204.78125 C 264.027344 204.480469 265.660156 204.089844 267.273438 203.613281 C 270.496094 202.703125 273.636719 201.582031 276.707031 200.246094 C 278.070312 199.652344 279.65625 199.042969 280.457031 197.699219 C 281.101562 196.609375 281.085938 195.089844 280.199219 194.136719 C 280.0625 193.988281 279.871094 194.175781 279.941406 194.335938 C 280.511719 195.621094 281.921875 196.042969 283.230469 195.824219 C 284.714844 195.578125 285.902344 194.503906 286.652344 193.253906 C 287.078125 192.554688 287.359375 191.800781 287.503906 190.992188 C 287.644531 190.183594 287.636719 189.378906 287.476562 188.574219 C 287.148438 186.992188 286.144531 185.644531 284.886719 184.65625 C 283.425781 183.507812 281.683594 182.789062 279.960938 182.140625 L 279.914062 182.472656 C 281.132812 182.488281 282.445312 182.058594 283.125 180.984375 C 283.738281 180.023438 283.570312 178.734375 282.878906 177.847656 C 282.300781 177.109375 281.320312 176.824219 280.503906 177.363281 C 279.757812 177.855469 279.351562 178.753906 278.949219 179.507812 C 278.515625 180.332031 277.960938 181.457031 276.890625 181.457031 L 277.054688 181.625 C 277.007812 180.113281 278.027344 178.792969 278.59375 177.457031 C 279.125 176.199219 279.5 174.839844 279.429688 173.46875 C 279.316406 171.347656 278.066406 168.851562 275.703125 168.679688 C 274.613281 168.601562 273.527344 169.109375 273.0625 170.128906 L 273.289062 170.066406 C 272.628906 169.765625 272.980469 168.910156 273.289062 168.492188 C 273.59375 168.074219 273.867188 167.679688 273.921875 167.144531 C 274.019531 166.144531 273.425781 165.128906 272.65625 164.527344 C 271.6875 163.765625 270.394531 163.660156 269.210938 163.703125 C 267.992188 163.746094 266.605469 163.757812 265.519531 164.390625 C 264.433594 165.027344 264.097656 166.28125 264.488281 167.410156 C 264.558594 167.609375 264.875 167.523438 264.808594 167.324219 C 264.40625 166.167969 264.882812 165.011719 266.007812 164.515625 C 267.09375 164.035156 268.441406 164.03125 269.613281 164.019531 C 270.78125 164.011719 272.03125 164.238281 272.851562 165.160156 C 273.550781 165.945312 273.878906 167.066406 273.246094 167.988281 C 272.957031 168.40625 272.609375 168.792969 272.585938 169.328125 C 272.570312 169.738281 272.726562 170.171875 273.121094 170.347656 C 273.214844 170.40625 273.292969 170.386719 273.347656 170.289062 C 273.769531 169.371094 274.722656 168.933594 275.707031 169.003906 C 276.816406 169.089844 277.71875 169.808594 278.285156 170.730469 C 279.628906 172.925781 279.109375 175.566406 278.097656 177.773438 C 277.527344 179.007812 276.683594 180.203125 276.726562 181.617188 C 276.726562 181.726562 276.78125 181.78125 276.894531 181.78125 C 278.523438 181.78125 279.117188 179.761719 279.8125 178.625 C 280.210938 177.980469 280.804688 177.265625 281.65625 177.40625 C 282.765625 177.585938 283.335938 179.0625 283.140625 180.058594 C 282.863281 181.523438 281.238281 182.140625 279.910156 182.121094 C 279.800781 182.105469 279.738281 182.15625 279.722656 182.265625 C 279.707031 182.375 279.757812 182.4375 279.867188 182.453125 C 282.578125 183.472656 285.679688 184.808594 286.855469 187.679688 C 287.136719 188.398438 287.277344 189.144531 287.269531 189.914062 C 287.265625 190.6875 287.117188 191.429688 286.824219 192.144531 C 286.308594 193.457031 285.289062 194.761719 283.9375 195.28125 C 282.589844 195.804688 280.859375 195.601562 280.21875 194.160156 L 279.960938 194.363281 C 280.816406 195.277344 280.71875 196.773438 280.015625 197.75 C 279.222656 198.84375 277.867188 199.367188 276.667969 199.894531 C 273.808594 201.148438 270.878906 202.210938 267.882812 203.085938 C 266.410156 203.515625 264.925781 203.910156 263.425781 204.234375 C 261.875 204.5625 260.277344 204.78125 258.691406 204.570312 C 256.164062 204.242188 253.660156 202.648438 252.925781 200.097656 C 252.570312 198.859375 252.605469 197.390625 253.371094 196.300781 C 254.089844 195.273438 255.445312 194.898438 255.90625 193.660156 L 255.578125 193.613281 C 255.480469 194.734375 256.386719 195.71875 257.417969 196.019531 C 258.75 196.40625 260.097656 195.632812 261.238281 195.046875 C 263.644531 193.820312 266.046875 192.546875 268.175781 190.875 C 269.265625 190.03125 270.25 189.078125 271.125 188.011719 C 271.980469 186.953125 272.609375 185.59375 273.734375 184.78125 C 274.90625 183.933594 276.550781 184.164062 277.132812 185.578125 C 277.585938 186.6875 277.429688 188.097656 277.152344 189.234375 C 277.019531 189.785156 276.820312 190.390625 276.40625 190.796875 C 275.929688 191.269531 275.363281 191.148438 274.761719 191.074219 C 274.363281 191.023438 273.894531 191 273.625 191.359375 C 273.359375 191.714844 273.472656 192.183594 273.707031 192.554688 C 274.039062 193.058594 274.574219 193.46875 274.714844 194.078125 C 274.851562 194.660156 274.640625 195.410156 274.070312 195.6875 C 272.800781 196.289062 271.535156 194.601562 270.640625 193.96875 C 269.964844 193.488281 268.839844 193.046875 268.046875 193.515625 C 267.105469 194.070312 267.480469 195.363281 268.117188 195.992188 C 268.585938 196.457031 269.222656 196.6875 269.839844 196.894531 C 270.457031 197.085938 271.050781 197.34375 271.617188 197.667969 C 272.679688 198.296875 273.671875 199.234375 273.992188 200.464844 C 274.375 201.933594 273.621094 203.292969 272.671875 204.355469 C 271.765625 205.398438 270.707031 206.261719 269.503906 206.941406 C 268.257812 207.617188 266.984375 207.820312 265.582031 207.792969 C 264.507812 207.773438 263.269531 207.695312 262.351562 208.363281 C 261.324219 209.109375 261.25 210.445312 260.882812 211.5625 C 260.710938 212.09375 260.4375 212.566406 260.058594 212.980469 C 259.683594 213.394531 259.238281 213.710938 258.726562 213.933594 C 256.386719 214.976562 253.800781 214.160156 251.625 213.128906 C 250.3125 212.503906 249.042969 211.796875 247.699219 211.238281 C 247.046875 210.953125 246.375 210.734375 245.683594 210.574219 C 245.164062 210.464844 244.597656 210.453125 244.164062 210.808594 C 243.503906 211.34375 243.449219 212.339844 243.316406 213.109375 C 243.175781 213.9375 242.820312 215.28125 241.671875 214.84375 C 241.066406 214.613281 240.605469 214.015625 240.234375 213.507812 C 239.84375 212.96875 239.507812 212.394531 239.101562 211.867188 C 238.304688 210.832031 237.363281 209.949219 236.273438 209.226562 C 233.773438 207.574219 230.835938 207.308594 227.933594 207.035156 C 224.910156 206.75 221.988281 206.097656 219.203125 204.875 C 217.839844 204.277344 216.535156 203.574219 215.285156 202.769531 C 214.0625 201.984375 212.875 201.117188 211.878906 200.054688 C 210.9375 199.050781 210.125 197.84375 209.882812 196.464844 C 209.769531 195.863281 209.789062 195.265625 209.941406 194.671875 C 210.09375 194.078125 210.363281 193.546875 210.75 193.070312 C 212.203125 191.339844 214.878906 190.648438 217.058594 190.71875 C 218.378906 190.765625 219.722656 191.144531 221.046875 190.996094 C 221.257812 190.976562 221.261719 190.644531 221.046875 190.667969 Z M 221.046875 190.664062 " fill-opacity="1" fill-rule="nonzero"/></g><g fill="#ffffff" fill-opacity="1"><g transform="translate(64.349672, 180.535623)"><g><path d="M 24.015625 -7.296875 C 24.015625 -3.441406 24.878906 -1.515625 26.609375 -1.515625 C 27.929688 -1.515625 29.273438 -2.679688 30.640625 -5.015625 C 32.015625 -7.347656 33.144531 -10.191406 34.03125 -13.546875 C 34.925781 -16.898438 35.40625 -20.070312 35.46875 -23.0625 C 34.050781 -24.21875 32.765625 -25.71875 31.609375 -27.5625 C 30.460938 -29.40625 29.890625 -30.59375 29.890625 -31.125 C 29.890625 -31.65625 30.132812 -32.1875 30.625 -32.71875 C 31.113281 -33.25 31.632812 -33.515625 32.1875 -33.515625 C 33.394531 -33.515625 34.453125 -32.625 35.359375 -30.84375 C 36.265625 -29.0625 36.757812 -26.898438 36.84375 -24.359375 C 37.914062 -23.441406 38.835938 -22.984375 39.609375 -22.984375 C 40.390625 -22.984375 40.894531 -23.226562 41.125 -23.71875 C 41.46875 -23.71875 41.640625 -23.5 41.640625 -23.0625 C 41.640625 -22.257812 41.195312 -21.726562 40.3125 -21.46875 L 39.53125 -21.390625 C 38.632812 -21.390625 37.738281 -21.644531 36.84375 -22.15625 C 36.675781 -18.875 36.113281 -15.535156 35.15625 -12.140625 C 34.207031 -8.742188 32.957031 -5.867188 31.40625 -3.515625 C 29.851562 -1.171875 28.253906 0 26.609375 0 C 24.304688 0 22.707031 -1.125 21.8125 -3.375 C 21.09375 -5.1875 20.734375 -7.359375 20.734375 -9.890625 C 20.734375 -10.554688 20.765625 -11.234375 20.828125 -11.921875 C 15.328125 -1.867188 10.929688 3.15625 7.640625 3.15625 C 6.234375 3.15625 5.53125 2.503906 5.53125 1.203125 C 5.53125 1.148438 5.53125 1.082031 5.53125 1 C 8.957031 -8.28125 10.671875 -16.101562 10.671875 -22.46875 C 10.671875 -27.382812 9.257812 -29.84375 6.4375 -29.84375 C 4.65625 -29.84375 3.398438 -29.082031 2.671875 -27.5625 C 2.441406 -27.070312 2.328125 -26.65625 2.328125 -26.3125 C 2.328125 -25.96875 2.429688 -25.796875 2.640625 -25.796875 C 2.578125 -25.390625 2.242188 -25.1875 1.640625 -25.1875 C 1.035156 -25.1875 0.734375 -25.578125 0.734375 -26.359375 C 0.734375 -27.535156 1.328125 -28.582031 2.515625 -29.5 C 3.710938 -30.425781 5.191406 -30.890625 6.953125 -30.890625 C 11.304688 -30.890625 13.484375 -27.5625 13.484375 -20.90625 C 13.484375 -18.425781 13.191406 -15.648438 12.609375 -12.578125 C 12.035156 -9.515625 11.550781 -7.328125 11.15625 -6.015625 C 10.769531 -4.710938 10.078125 -2.445312 9.078125 0.78125 C 8.984375 1.09375 9.050781 1.25 9.28125 1.25 C 9.488281 1.21875 9.734375 1.085938 10.015625 0.859375 C 12.035156 -0.890625 14.023438 -3.335938 15.984375 -6.484375 C 18.804688 -11.117188 20.878906 -15.363281 22.203125 -19.21875 C 23.617188 -23.601562 24.972656 -25.796875 26.265625 -25.796875 C 26.835938 -25.796875 27.125 -25.492188 27.125 -24.890625 C 26.4375 -22.691406 25.570312 -18.6875 24.53125 -12.875 C 24.1875 -10.832031 24.015625 -8.972656 24.015625 -7.296875 Z M 32.484375 -32.1875 C 32.367188 -32.125 32.3125 -31.992188 32.3125 -31.796875 C 32.3125 -31.597656 32.359375 -31.296875 32.453125 -30.890625 C 32.554688 -30.484375 32.894531 -29.757812 33.46875 -28.71875 C 34.050781 -27.6875 34.6875 -26.753906 35.375 -25.921875 C 35.175781 -27.703125 34.78125 -29.191406 34.1875 -30.390625 C 33.601562 -31.585938 33.035156 -32.1875 32.484375 -32.1875 Z M 32.484375 -32.1875 "/></g></g></g><g fill="#ffffff" fill-opacity="1"><g transform="translate(104.603255, 180.535623)"><g><path d="M 1.125 -3.671875 C 1.125 -7.929688 1.5625 -11.734375 2.4375 -15.078125 C 3.320312 -18.421875 4.4375 -20.09375 5.78125 -20.09375 C 6.445312 -20.09375 6.78125 -19.734375 6.78125 -19.015625 C 6.488281 -18.265625 6.125 -17.269531 5.6875 -16.03125 C 5.257812 -14.789062 4.691406 -12.550781 3.984375 -9.3125 C 3.285156 -6.070312 2.9375 -3.179688 2.9375 -0.640625 C 2.9375 -0.242188 2.722656 -0.046875 2.296875 -0.046875 C 1.515625 -0.046875 1.125 -1.253906 1.125 -3.671875 Z M 6.90625 -24.15625 C 6.300781 -24.15625 6 -24.726562 6 -25.875 C 6 -26.5625 6.1875 -27.285156 6.5625 -28.046875 C 6.9375 -28.816406 7.472656 -29.203125 8.171875 -29.203125 C 8.742188 -29.203125 9.03125 -28.867188 9.03125 -28.203125 C 9.03125 -27.546875 8.5 -26.441406 7.4375 -24.890625 Z M 6.90625 -24.15625 "/></g></g></g><g fill="#ffffff" fill-opacity="1"><g transform="translate(114.018789, 180.535623)"><g><path d="M 3.109375 -1.46875 C 3.109375 0.550781 3.757812 1.5625 5.0625 1.5625 C 6.269531 1.5625 7.398438 0.566406 8.453125 -1.421875 C 9.503906 -3.410156 10.03125 -5.914062 10.03125 -8.9375 C 10.03125 -10.40625 9.757812 -12.476562 9.21875 -15.15625 C 8.6875 -17.84375 8.421875 -19.59375 8.421875 -20.40625 C 8.421875 -21.226562 8.453125 -21.769531 8.515625 -22.03125 C 8.140625 -21.425781 7.054688 -19.414062 5.265625 -16 C 3.484375 -12.59375 1.898438 -9.894531 0.515625 -7.90625 C 0.398438 -7.789062 0.242188 -7.753906 0.046875 -7.796875 C -0.148438 -7.835938 -0.3125 -7.921875 -0.4375 -8.046875 C -0.570312 -8.179688 -0.640625 -8.273438 -0.640625 -8.328125 C -0.640625 -8.390625 -0.625 -8.4375 -0.59375 -8.46875 C 0.75 -10.425781 2.320312 -13.125 4.125 -16.5625 C 5.925781 -20.007812 7.429688 -22.582031 8.640625 -24.28125 C 9.847656 -25.976562 11.046875 -26.828125 12.234375 -26.828125 C 12.835938 -26.828125 13.140625 -26.566406 13.140625 -26.046875 C 13.140625 -25.703125 12.894531 -25.242188 12.40625 -24.671875 C 10.84375 -22.910156 10.0625 -21.109375 10.0625 -19.265625 C 10.0625 -18.171875 10.476562 -16.0625 11.3125 -12.9375 C 12.15625 -9.8125 12.578125 -7.546875 12.578125 -6.140625 C 12.578125 -3.597656 11.867188 -1.441406 10.453125 0.328125 C 9.046875 2.097656 7.445312 2.984375 5.65625 2.984375 C 3.125 2.984375 1.859375 1.53125 1.859375 -1.375 C 1.859375 -3.570312 2.523438 -5.863281 3.859375 -8.25 C 5.203125 -10.644531 6.550781 -12.257812 7.90625 -13.09375 C 8.164062 -13.257812 8.332031 -13.15625 8.40625 -12.78125 C 8.476562 -12.40625 8.425781 -12.160156 8.25 -12.046875 C 6.726562 -11.179688 5.40625 -9.335938 4.28125 -6.515625 C 3.5 -4.535156 3.109375 -2.851562 3.109375 -1.46875 Z M 3.109375 -1.46875 "/></g></g></g><g fill="#ffffff" fill-opacity="1"><g transform="translate(130.388006, 180.535623)"><g><path d="M 3.625 0 C 1.207031 0 0 -1.859375 0 -5.578125 C 0 -7.734375 0.546875 -10.109375 1.640625 -12.703125 C 3.140625 -16.328125 5.113281 -18.789062 7.5625 -20.09375 C 8.625 -20.664062 9.585938 -20.953125 10.453125 -20.953125 C 11.316406 -20.953125 11.976562 -20.800781 12.4375 -20.5 C 12.894531 -20.195312 13.195312 -19.882812 13.34375 -19.5625 L 13.5625 -19.09375 C 13.476562 -18.601562 13.21875 -18.359375 12.78125 -18.359375 C 12.351562 -18.359375 12.046875 -18.59375 11.859375 -19.0625 C 11.671875 -19.539062 11.234375 -19.78125 10.546875 -19.78125 C 8.671875 -19.78125 7 -18.125 5.53125 -14.8125 C 3.832031 -11.070312 2.984375 -7.53125 2.984375 -4.1875 C 2.984375 -2.4375 3.34375 -1.5625 4.0625 -1.5625 C 4.632812 -1.5625 5.472656 -2.269531 6.578125 -3.6875 C 7.691406 -5.113281 8.835938 -6.851562 10.015625 -8.90625 C 11.628906 -11.71875 13.054688 -14.289062 14.296875 -16.625 C 15.335938 -21.125 16.597656 -25.050781 18.078125 -28.40625 C 19.554688 -31.757812 20.785156 -33.4375 21.765625 -33.4375 C 22.253906 -33.4375 22.5 -33.191406 22.5 -32.703125 C 21.8125 -31.203125 21 -29.15625 20.0625 -26.5625 C 19.125 -23.976562 18.332031 -21.507812 17.6875 -19.15625 C 17.039062 -16.8125 16.453125 -14.007812 15.921875 -10.75 C 15.390625 -7.5 15.125 -4.4375 15.125 -1.5625 C 15.125 2.726562 16.054688 4.875 17.921875 4.875 C 18.648438 4.875 19.320312 4.566406 19.9375 3.953125 C 20.550781 3.335938 20.988281 2.722656 21.25 2.109375 C 21.394531 1.796875 21.65625 1.710938 22.03125 1.859375 C 22.175781 1.910156 22.234375 1.992188 22.203125 2.109375 C 22.035156 2.484375 21.820312 2.914062 21.5625 3.40625 C 21.300781 3.894531 20.785156 4.5 20.015625 5.21875 C 19.253906 5.945312 18.488281 6.3125 17.71875 6.3125 C 14.289062 6.3125 12.578125 3.082031 12.578125 -3.375 C 12.578125 -5.644531 12.773438 -8.078125 13.171875 -10.671875 L 12.609375 -10.671875 C 8.546875 -3.554688 5.550781 0 3.625 0 Z M 3.625 0 "/></g></g></g><g fill="#ffffff" fill-opacity="1"><g transform="translate(151.421799, 180.535623)"><g><path d="M 5.3125 0.390625 C 1.769531 0.390625 0 -2.039062 0 -6.90625 C 0 -9.644531 0.691406 -12.382812 2.078125 -15.125 C 3.835938 -18.570312 5.925781 -20.296875 8.34375 -20.296875 C 8.6875 -20.296875 8.972656 -20.207031 9.203125 -20.03125 C 9.429688 -19.863281 9.59375 -19.609375 9.6875 -19.265625 C 7.863281 -19.265625 6.289062 -17.8125 4.96875 -14.90625 C 3.644531 -12 2.984375 -9.132812 2.984375 -6.3125 C 2.984375 -2.882812 3.921875 -1.171875 5.796875 -1.171875 C 6.859375 -1.171875 7.960938 -1.984375 9.109375 -3.609375 C 10.265625 -5.234375 11.222656 -7.367188 11.984375 -10.015625 C 12.753906 -12.671875 13.140625 -15.335938 13.140625 -18.015625 L 13.140625 -18.53125 C 12.242188 -19.101562 11.503906 -19.820312 10.921875 -20.6875 C 10.347656 -21.550781 10.0625 -22.1875 10.0625 -22.59375 C 10.0625 -23 10.242188 -23.378906 10.609375 -23.734375 C 10.972656 -24.097656 11.335938 -24.28125 11.703125 -24.28125 C 12.253906 -24.28125 12.789062 -23.789062 13.3125 -22.8125 C 13.832031 -21.832031 14.191406 -20.722656 14.390625 -19.484375 C 15.285156 -18.878906 16.070312 -18.578125 16.75 -18.578125 C 17.425781 -18.578125 17.960938 -18.691406 18.359375 -18.921875 C 18.359375 -18.515625 18.210938 -18.148438 17.921875 -17.828125 C 17.640625 -17.515625 17.195312 -17.359375 16.59375 -17.359375 C 15.988281 -17.359375 15.296875 -17.503906 14.515625 -17.796875 C 14.484375 -15.035156 14.066406 -12.253906 13.265625 -9.453125 C 12.460938 -6.660156 11.335938 -4.320312 9.890625 -2.4375 C 8.453125 -0.550781 6.925781 0.390625 5.3125 0.390625 Z M 5.3125 0.390625 "/></g></g></g><g fill="#ffffff" fill-opacity="1"><g transform="translate(169.259486, 180.535623)"><g><path d="M 10.578125 -5.265625 C 10.578125 -8.804688 11.226562 -13.285156 12.53125 -18.703125 C 12.613281 -18.992188 12.523438 -19.125 12.265625 -19.09375 C 12.066406 -19.0625 11.878906 -18.972656 11.703125 -18.828125 C 10.441406 -17.765625 9.046875 -15.789062 7.515625 -12.90625 C 5.992188 -10.03125 4.769531 -7.40625 3.84375 -5.03125 C 2.925781 -2.65625 2.46875 -1.265625 2.46875 -0.859375 C 2.46875 -0.515625 2.25 -0.34375 1.8125 -0.34375 C 0.945312 -0.34375 0.515625 -1.484375 0.515625 -3.765625 C 0.515625 -8.078125 0.945312 -11.96875 1.8125 -15.4375 C 2.675781 -18.914062 3.726562 -20.65625 4.96875 -20.65625 C 5.507812 -20.65625 5.78125 -20.351562 5.78125 -19.75 C 4.457031 -15.570312 3.507812 -11.28125 2.9375 -6.875 L 3.328125 -6.875 C 7.128906 -16.375 10.628906 -21.125 13.828125 -21.125 C 15.203125 -21.125 15.890625 -20.445312 15.890625 -19.09375 C 14.546875 -15.0625 13.566406 -11.085938 12.953125 -7.171875 L 13.3125 -7.171875 C 14.257812 -9.179688 15.210938 -11.015625 16.171875 -12.671875 C 17.140625 -14.328125 18.269531 -15.867188 19.5625 -17.296875 C 20.863281 -18.722656 22.03125 -19.4375 23.0625 -19.4375 C 24.445312 -19.4375 25.140625 -18.773438 25.140625 -17.453125 C 23.640625 -12.472656 22.890625 -7.617188 22.890625 -2.890625 C 22.890625 0.160156 23.351562 1.6875 24.28125 1.6875 C 24.59375 1.6875 24.90625 1.546875 25.21875 1.265625 C 25.539062 0.992188 25.757812 0.859375 25.875 0.859375 C 26.28125 0.859375 26.265625 1.175781 25.828125 1.8125 C 25.710938 2.007812 25.460938 2.28125 25.078125 2.625 C 24.691406 2.976562 24.3125 3.15625 23.9375 3.15625 C 22.8125 3.15625 21.9375 2.367188 21.3125 0.796875 C 20.695312 -0.773438 20.390625 -2.8125 20.390625 -5.3125 C 20.390625 -9.71875 20.847656 -13.59375 21.765625 -16.9375 C 21.828125 -17.132812 21.757812 -17.234375 21.5625 -17.234375 C 21.382812 -17.203125 21.207031 -17.117188 21.03125 -16.984375 C 19.394531 -15.566406 17.566406 -12.945312 15.546875 -9.125 C 13.535156 -5.3125 12.53125 -3.0625 12.53125 -2.375 C 12.53125 -2.03125 12.300781 -1.859375 11.84375 -1.859375 C 11 -1.859375 10.578125 -2.992188 10.578125 -5.265625 Z M 10.578125 -5.265625 "/></g></g></g><g fill="#ffffff" fill-opacity="1"><g transform="translate(67.244203, 215.03562)"><g><path d="M 24.015625 -7.296875 C 24.015625 -3.441406 24.878906 -1.515625 26.609375 -1.515625 C 27.929688 -1.515625 29.273438 -2.679688 30.640625 -5.015625 C 32.015625 -7.347656 33.144531 -10.191406 34.03125 -13.546875 C 34.925781 -16.898438 35.40625 -20.070312 35.46875 -23.0625 C 34.050781 -24.21875 32.765625 -25.71875 31.609375 -27.5625 C 30.460938 -29.40625 29.890625 -30.59375 29.890625 -31.125 C 29.890625 -31.65625 30.132812 -32.1875 30.625 -32.71875 C 31.113281 -33.25 31.632812 -33.515625 32.1875 -33.515625 C 33.394531 -33.515625 34.453125 -32.625 35.359375 -30.84375 C 36.265625 -29.0625 36.757812 -26.898438 36.84375 -24.359375 C 37.914062 -23.441406 38.835938 -22.984375 39.609375 -22.984375 C 40.390625 -22.984375 40.894531 -23.226562 41.125 -23.71875 C 41.46875 -23.71875 41.640625 -23.5 41.640625 -23.0625 C 41.640625 -22.257812 41.195312 -21.726562 40.3125 -21.46875 L 39.53125 -21.390625 C 38.632812 -21.390625 37.738281 -21.644531 36.84375 -22.15625 C 36.675781 -18.875 36.113281 -15.535156 35.15625 -12.140625 C 34.207031 -8.742188 32.957031 -5.867188 31.40625 -3.515625 C 29.851562 -1.171875 28.253906 0 26.609375 0 C 24.304688 0 22.707031 -1.125 21.8125 -3.375 C 21.09375 -5.1875 20.734375 -7.359375 20.734375 -9.890625 C 20.734375 -10.554688 20.765625 -11.234375 20.828125 -11.921875 C 15.328125 -1.867188 10.929688 3.15625 7.640625 3.15625 C 6.234375 3.15625 5.53125 2.503906 5.53125 1.203125 C 5.53125 1.148438 5.53125 1.082031 5.53125 1 C 8.957031 -8.28125 10.671875 -16.101562 10.671875 -22.46875 C 10.671875 -27.382812 9.257812 -29.84375 6.4375 -29.84375 C 4.65625 -29.84375 3.398438 -29.082031 2.671875 -27.5625 C 2.441406 -27.070312 2.328125 -26.65625 2.328125 -26.3125 C 2.328125 -25.96875 2.429688 -25.796875 2.640625 -25.796875 C 2.578125 -25.390625 2.242188 -25.1875 1.640625 -25.1875 C 1.035156 -25.1875 0.734375 -25.578125 0.734375 -26.359375 C 0.734375 -27.535156 1.328125 -28.582031 2.515625 -29.5 C 3.710938 -30.425781 5.191406 -30.890625 6.953125 -30.890625 C 11.304688 -30.890625 13.484375 -27.5625 13.484375 -20.90625 C 13.484375 -18.425781 13.191406 -15.648438 12.609375 -12.578125 C 12.035156 -9.515625 11.550781 -7.328125 11.15625 -6.015625 C 10.769531 -4.710938 10.078125 -2.445312 9.078125 0.78125 C 8.984375 1.09375 9.050781 1.25 9.28125 1.25 C 9.488281 1.21875 9.734375 1.085938 10.015625 0.859375 C 12.035156 -0.890625 14.023438 -3.335938 15.984375 -6.484375 C 18.804688 -11.117188 20.878906 -15.363281 22.203125 -19.21875 C 23.617188 -23.601562 24.972656 -25.796875 26.265625 -25.796875 C 26.835938 -25.796875 27.125 -25.492188 27.125 -24.890625 C 26.4375 -22.691406 25.570312 -18.6875 24.53125 -12.875 C 24.1875 -10.832031 24.015625 -8.972656 24.015625 -7.296875 Z M 32.484375 -32.1875 C 32.367188 -32.125 32.3125 -31.992188 32.3125 -31.796875 C 32.3125 -31.597656 32.359375 -31.296875 32.453125 -30.890625 C 32.554688 -30.484375 32.894531 -29.757812 33.46875 -28.71875 C 34.050781 -27.6875 34.6875 -26.753906 35.375 -25.921875 C 35.175781 -27.703125 34.78125 -29.191406 34.1875 -30.390625 C 33.601562 -31.585938 33.035156 -32.1875 32.484375 -32.1875 Z M 32.484375 -32.1875 "/></g></g></g><g fill="#ffffff" fill-opacity="1"><g transform="translate(107.497786, 215.03562)"><g><path d="M 11.328125 -20.953125 C 13.515625 -20.953125 14.609375 -19.671875 14.609375 -17.109375 C 14.609375 -15.640625 14.117188 -14.097656 13.140625 -12.484375 C 11.460938 -9.804688 9.242188 -8.46875 6.484375 -8.46875 C 6.046875 -8.46875 5.679688 -8.539062 5.390625 -8.6875 C 5.109375 -8.832031 4.894531 -9.046875 4.75 -9.328125 C 6.800781 -9.328125 8.675781 -10.507812 10.375 -12.875 C 11.75 -14.769531 12.4375 -16.507812 12.4375 -18.09375 C 12.4375 -19.28125 11.960938 -19.875 11.015625 -19.875 C 9.117188 -19.875 7.347656 -18.390625 5.703125 -15.421875 C 3.953125 -12.191406 3.078125 -8.878906 3.078125 -5.484375 C 3.078125 -2.609375 3.894531 -0.878906 5.53125 -0.296875 C 5.851562 -0.179688 6.257812 -0.125 6.75 -0.125 C 7.238281 -0.125 7.753906 -0.242188 8.296875 -0.484375 C 8.847656 -0.734375 9.3125 -1.03125 9.6875 -1.375 C 10.425781 -2.070312 11.039062 -2.835938 11.53125 -3.671875 C 11.644531 -3.898438 11.863281 -4.015625 12.1875 -4.015625 C 12.707031 -4.015625 12.953125 -3.929688 12.921875 -3.765625 C 12.835938 -3.441406 12.515625 -2.90625 11.953125 -2.15625 C 11.390625 -1.40625 10.867188 -0.804688 10.390625 -0.359375 C 9.921875 0.078125 9.300781 0.472656 8.53125 0.828125 C 7.769531 1.191406 7 1.375 6.21875 1.375 C 3.164062 1.375 1.222656 -0.0625 0.390625 -2.9375 C 0.128906 -3.914062 0 -4.925781 0 -5.96875 C 0 -7.894531 0.445312 -9.992188 1.34375 -12.265625 C 2.75 -15.722656 4.691406 -18.21875 7.171875 -19.75 C 8.523438 -20.550781 9.910156 -20.953125 11.328125 -20.953125 Z M 11.328125 -20.953125 "/></g></g></g><g fill="#ffffff" fill-opacity="1"><g transform="translate(124.298902, 215.03562)"><g><path d="M 3.625 0 C 1.269531 0 0.09375 -1.859375 0.09375 -5.578125 C 0.09375 -7.796875 0.640625 -10.226562 1.734375 -12.875 C 3.253906 -16.59375 5.253906 -19.128906 7.734375 -20.484375 C 8.796875 -21.054688 9.785156 -21.34375 10.703125 -21.34375 C 11.628906 -21.34375 12.359375 -21.140625 12.890625 -20.734375 C 13.421875 -20.328125 13.757812 -19.925781 13.90625 -19.53125 L 14.171875 -18.96875 C 14.085938 -18.476562 13.84375 -18.234375 13.4375 -18.234375 C 12.976562 -18.234375 12.710938 -18.335938 12.640625 -18.546875 C 12.566406 -18.765625 12.484375 -18.953125 12.390625 -19.109375 C 12.304688 -19.273438 12.101562 -19.492188 11.78125 -19.765625 C 11.46875 -20.035156 11.113281 -20.171875 10.71875 -20.171875 C 8.84375 -20.171875 7.140625 -18.488281 5.609375 -15.125 C 3.890625 -11.226562 3.03125 -7.566406 3.03125 -4.140625 C 3.03125 -2.421875 3.375 -1.5625 4.0625 -1.5625 C 4.601562 -1.5625 5.367188 -2.171875 6.359375 -3.390625 C 7.359375 -4.617188 8.40625 -6.148438 9.5 -7.984375 C 11.40625 -11.160156 12.945312 -13.914062 14.125 -16.25 C 15.101562 -18.320312 16.113281 -19.359375 17.15625 -19.359375 C 17.695312 -19.359375 17.96875 -19.023438 17.96875 -18.359375 C 17.707031 -17.816406 17.375 -17.039062 16.96875 -16.03125 C 16.570312 -15.019531 16.039062 -13.015625 15.375 -10.015625 C 14.71875 -7.023438 14.390625 -4.046875 14.390625 -1.078125 C 14.390625 1.890625 14.832031 3.375 15.71875 3.375 C 16.070312 3.375 16.390625 3.222656 16.671875 2.921875 C 16.960938 2.617188 17.222656 2.164062 17.453125 1.5625 C 17.535156 1.238281 17.738281 1.078125 18.0625 1.078125 C 18.175781 1.078125 18.257812 1.117188 18.3125 1.203125 C 18.375 1.296875 18.375 1.441406 18.3125 1.640625 C 18.257812 1.835938 18.160156 2.117188 18.015625 2.484375 C 17.867188 2.847656 17.554688 3.332031 17.078125 3.9375 C 16.609375 4.539062 16.113281 4.84375 15.59375 4.84375 C 14.382812 4.84375 13.457031 4.050781 12.8125 2.46875 C 12.164062 0.882812 11.84375 -0.984375 11.84375 -3.140625 C 11.84375 -5.304688 12 -7.382812 12.3125 -9.375 L 11.875 -9.375 C 8.21875 -3.125 5.46875 0 3.625 0 Z M 3.625 0 "/></g></g></g><g fill="#ffffff" fill-opacity="1"><g transform="translate(144.943973, 215.03562)"><g><path d="M 13.703125 -19.5625 C 14.535156 -18.9375 15.332031 -18.625 16.09375 -18.625 C 16.851562 -18.625 17.394531 -18.722656 17.71875 -18.921875 C 17.71875 -18.546875 17.550781 -18.191406 17.21875 -17.859375 C 16.882812 -17.523438 16.40625 -17.359375 15.78125 -17.359375 C 15.164062 -17.359375 14.5 -17.503906 13.78125 -17.796875 C 13.695312 -15.085938 13.175781 -12.316406 12.21875 -9.484375 C 11.269531 -6.648438 10.046875 -4.273438 8.546875 -2.359375 C 7.054688 -0.441406 5.566406 0.515625 4.078125 0.515625 C 2.597656 0.515625 1.539062 -0.09375 0.90625 -1.3125 C 0.269531 -2.539062 -0.046875 -3.945312 -0.046875 -5.53125 C -0.046875 -7.425781 0.21875 -9.460938 0.75 -11.640625 C 1.289062 -13.816406 1.921875 -15.566406 2.640625 -16.890625 C 3.359375 -18.210938 4.003906 -18.875 4.578125 -18.875 C 5.160156 -18.875 5.453125 -18.570312 5.453125 -17.96875 C 3.628906 -11.6875 2.71875 -7.28125 2.71875 -4.75 C 2.71875 -2.21875 3.28125 -0.953125 4.40625 -0.953125 C 5.382812 -0.953125 6.5 -1.800781 7.75 -3.5 C 9.007812 -5.195312 10.097656 -7.4375 11.015625 -10.21875 C 11.941406 -13 12.40625 -15.710938 12.40625 -18.359375 L 12.40625 -18.625 C 11.570312 -19.226562 10.894531 -19.945312 10.375 -20.78125 C 9.851562 -21.613281 9.59375 -22.238281 9.59375 -22.65625 C 9.59375 -23.070312 9.78125 -23.453125 10.15625 -23.796875 C 10.53125 -24.148438 10.929688 -24.328125 11.359375 -24.328125 C 11.878906 -24.328125 12.363281 -23.84375 12.8125 -22.875 C 13.257812 -21.90625 13.554688 -20.800781 13.703125 -19.5625 Z M 13.703125 -19.5625 "/></g></g></g><g fill="#ffffff" fill-opacity="1"><g transform="translate(161.745089, 215.03562)"><g><path d="M 11.328125 -20.953125 C 13.515625 -20.953125 14.609375 -19.671875 14.609375 -17.109375 C 14.609375 -15.640625 14.117188 -14.097656 13.140625 -12.484375 C 11.460938 -9.804688 9.242188 -8.46875 6.484375 -8.46875 C 6.046875 -8.46875 5.679688 -8.539062 5.390625 -8.6875 C 5.109375 -8.832031 4.894531 -9.046875 4.75 -9.328125 C 6.800781 -9.328125 8.675781 -10.507812 10.375 -12.875 C 11.75 -14.769531 12.4375 -16.507812 12.4375 -18.09375 C 12.4375 -19.28125 11.960938 -19.875 11.015625 -19.875 C 9.117188 -19.875 7.347656 -18.390625 5.703125 -15.421875 C 3.953125 -12.191406 3.078125 -8.878906 3.078125 -5.484375 C 3.078125 -2.609375 3.894531 -0.878906 5.53125 -0.296875 C 5.851562 -0.179688 6.257812 -0.125 6.75 -0.125 C 7.238281 -0.125 7.753906 -0.242188 8.296875 -0.484375 C 8.847656 -0.734375 9.3125 -1.03125 9.6875 -1.375 C 10.425781 -2.070312 11.039062 -2.835938 11.53125 -3.671875 C 11.644531 -3.898438 11.863281 -4.015625 12.1875 -4.015625 C 12.707031 -4.015625 12.953125 -3.929688 12.921875 -3.765625 C 12.835938 -3.441406 12.515625 -2.90625 11.953125 -2.15625 C 11.390625 -1.40625 10.867188 -0.804688 10.390625 -0.359375 C 9.921875 0.078125 9.300781 0.472656 8.53125 0.828125 C 7.769531 1.191406 7 1.375 6.21875 1.375 C 3.164062 1.375 1.222656 -0.0625 0.390625 -2.9375 C 0.128906 -3.914062 0 -4.925781 0 -5.96875 C 0 -7.894531 0.445312 -9.992188 1.34375 -12.265625 C 2.75 -15.722656 4.691406 -18.21875 7.171875 -19.75 C 8.523438 -20.550781 9.910156 -20.953125 11.328125 -20.953125 Z M 11.328125 -20.953125 "/></g></g></g><g fill="#ffffff" fill-opacity="1"><g transform="translate(178.546205, 215.03562)"><g><path d="M 13.734375 -12.390625 C 12.640625 -12.390625 12.09375 -13.585938 12.09375 -15.984375 C 12.09375 -17.335938 12.351562 -18.601562 12.875 -19.78125 C 10.914062 -18.082031 8.722656 -14.921875 6.296875 -10.296875 C 3.878906 -5.679688 2.671875 -2.664062 2.671875 -1.25 C 2.671875 -0.90625 2.441406 -0.734375 1.984375 -0.734375 C 1.148438 -0.734375 0.734375 -1.867188 0.734375 -4.140625 C 0.734375 -8.429688 1.164062 -12.316406 2.03125 -15.796875 C 2.894531 -19.285156 3.945312 -21.03125 5.1875 -21.03125 C 5.726562 -21.03125 6 -20.71875 6 -20.09375 C 4.675781 -15.882812 3.726562 -11.578125 3.15625 -7.171875 L 3.453125 -7.171875 C 5.785156 -12.554688 8.363281 -16.757812 11.1875 -19.78125 C 12.800781 -21.507812 14.269531 -22.375 15.59375 -22.375 C 15.882812 -22.375 16.125 -22.285156 16.3125 -22.109375 C 16.5 -21.941406 16.59375 -21.726562 16.59375 -21.46875 C 16.382812 -21.269531 16.132812 -20.96875 15.84375 -20.5625 C 15.5625 -20.15625 15.175781 -19.195312 14.6875 -17.6875 C 14.195312 -16.175781 13.953125 -14.53125 13.953125 -12.75 C 13.953125 -12.507812 13.878906 -12.390625 13.734375 -12.390625 Z M 13.734375 -12.390625 "/></g></g></g><g fill="#ffffff" fill-opacity="1"><g transform="translate(195.095761, 215.03562)"><g/></g></g><g fill="#ffffff" fill-opacity="1"><g transform="translate(72.85319, 239.561336)"><g><path d="M 3.546875 -9.078125 L 0.046875 -9.078125 L 0.046875 -9.5 L 7.46875 -9.5 L 7.46875 -9.078125 L 3.984375 -9.078125 L 3.984375 0 L 3.546875 0 Z M 3.546875 -9.078125 "/></g></g></g><g fill="#ffffff" fill-opacity="1"><g transform="translate(81.477442, 239.561336)"><g><path d="M 8.40625 0 L 6.0625 -3.265625 C 5.75 -3.210938 5.40625 -3.1875 5.03125 -3.1875 L 2.203125 -3.1875 L 2.203125 0 L 1.734375 0 L 1.734375 -9.5 L 5.03125 -9.5 C 6.21875 -9.5 7.140625 -9.21875 7.796875 -8.65625 C 8.460938 -8.101562 8.796875 -7.332031 8.796875 -6.34375 C 8.796875 -5.582031 8.597656 -4.945312 8.203125 -4.4375 C 7.816406 -3.925781 7.257812 -3.570312 6.53125 -3.375 L 8.953125 0 Z M 5.0625 -3.609375 C 6.113281 -3.609375 6.925781 -3.84375 7.5 -4.3125 C 8.070312 -4.789062 8.359375 -5.46875 8.359375 -6.34375 C 8.359375 -7.21875 8.070312 -7.890625 7.5 -8.359375 C 6.925781 -8.835938 6.113281 -9.078125 5.0625 -9.078125 L 2.203125 -9.078125 L 2.203125 -3.609375 Z M 5.0625 -3.609375 "/></g></g></g><g fill="#ffffff" fill-opacity="1"><g transform="translate(92.311743, 239.561336)"><g><path d="M 7.546875 -2.78125 L 1.875 -2.78125 L 0.59375 0 L 0.09375 0 L 4.484375 -9.5 L 4.9375 -9.5 L 9.328125 0 L 8.828125 0 Z M 7.375 -3.171875 L 4.71875 -8.96875 L 2.046875 -3.171875 Z M 7.375 -3.171875 "/></g></g></g><g fill="#ffffff" fill-opacity="1"><g transform="translate(102.847752, 239.561336)"><g><path d="M 9.3125 -9.5 L 9.3125 0 L 8.9375 0 L 2.203125 -8.65625 L 2.203125 0 L 1.734375 0 L 1.734375 -9.5 L 2.109375 -9.5 L 8.859375 -0.84375 L 8.859375 -9.5 Z M 9.3125 -9.5 "/></g></g></g><g fill="#ffffff" fill-opacity="1"><g transform="translate(114.997229, 239.561336)"><g><path d="M 4.140625 0.046875 C 3.453125 0.046875 2.796875 -0.0703125 2.171875 -0.3125 C 1.554688 -0.550781 1.082031 -0.867188 0.75 -1.265625 L 0.984375 -1.59375 C 1.304688 -1.226562 1.75 -0.929688 2.3125 -0.703125 C 2.875 -0.472656 3.476562 -0.359375 4.125 -0.359375 C 5.070312 -0.359375 5.785156 -0.546875 6.265625 -0.921875 C 6.753906 -1.296875 7 -1.773438 7 -2.359375 C 7 -2.804688 6.867188 -3.164062 6.609375 -3.4375 C 6.359375 -3.71875 6.046875 -3.925781 5.671875 -4.0625 C 5.304688 -4.207031 4.800781 -4.359375 4.15625 -4.515625 C 3.476562 -4.691406 2.929688 -4.859375 2.515625 -5.015625 C 2.097656 -5.179688 1.742188 -5.429688 1.453125 -5.765625 C 1.160156 -6.097656 1.015625 -6.546875 1.015625 -7.109375 C 1.015625 -7.546875 1.128906 -7.953125 1.359375 -8.328125 C 1.597656 -8.703125 1.957031 -9 2.4375 -9.21875 C 2.925781 -9.4375 3.535156 -9.546875 4.265625 -9.546875 C 4.773438 -9.546875 5.28125 -9.46875 5.78125 -9.3125 C 6.28125 -9.164062 6.707031 -8.957031 7.0625 -8.6875 L 6.859375 -8.3125 C 6.492188 -8.582031 6.082031 -8.785156 5.625 -8.921875 C 5.164062 -9.066406 4.710938 -9.140625 4.265625 -9.140625 C 3.347656 -9.140625 2.648438 -8.945312 2.171875 -8.5625 C 1.703125 -8.175781 1.46875 -7.691406 1.46875 -7.109375 C 1.46875 -6.648438 1.59375 -6.28125 1.84375 -6 C 2.101562 -5.726562 2.421875 -5.519531 2.796875 -5.375 C 3.171875 -5.226562 3.675781 -5.078125 4.3125 -4.921875 C 5 -4.753906 5.550781 -4.585938 5.96875 -4.421875 C 6.382812 -4.265625 6.734375 -4.019531 7.015625 -3.6875 C 7.304688 -3.363281 7.453125 -2.925781 7.453125 -2.375 C 7.453125 -1.925781 7.332031 -1.515625 7.09375 -1.140625 C 6.851562 -0.773438 6.484375 -0.484375 5.984375 -0.265625 C 5.484375 -0.0546875 4.867188 0.046875 4.140625 0.046875 Z M 4.140625 0.046875 "/></g></g></g><g fill="#ffffff" fill-opacity="1"><g transform="translate(124.285842, 239.561336)"><g><path d="M 2.203125 -9.078125 L 2.203125 -4.734375 L 7.34375 -4.734375 L 7.34375 -4.328125 L 2.203125 -4.328125 L 2.203125 0 L 1.734375 0 L 1.734375 -9.5 L 7.96875 -9.5 L 7.96875 -9.078125 Z M 2.203125 -9.078125 "/></g></g></g><g fill="#ffffff" fill-opacity="1"><g transform="translate(133.92698, 239.561336)"><g><path d="M 5.671875 0.046875 C 4.742188 0.046875 3.90625 -0.15625 3.15625 -0.5625 C 2.414062 -0.976562 1.832031 -1.550781 1.40625 -2.28125 C 0.976562 -3.019531 0.765625 -3.84375 0.765625 -4.75 C 0.765625 -5.65625 0.976562 -6.472656 1.40625 -7.203125 C 1.832031 -7.929688 2.414062 -8.503906 3.15625 -8.921875 C 3.90625 -9.335938 4.742188 -9.546875 5.671875 -9.546875 C 6.585938 -9.546875 7.421875 -9.335938 8.171875 -8.921875 C 8.921875 -8.503906 9.507812 -7.929688 9.9375 -7.203125 C 10.363281 -6.472656 10.578125 -5.65625 10.578125 -4.75 C 10.578125 -3.84375 10.363281 -3.019531 9.9375 -2.28125 C 9.507812 -1.550781 8.921875 -0.976562 8.171875 -0.5625 C 7.421875 -0.15625 6.585938 0.046875 5.671875 0.046875 Z M 5.671875 -0.359375 C 6.503906 -0.359375 7.257812 -0.546875 7.9375 -0.921875 C 8.613281 -1.304688 9.144531 -1.832031 9.53125 -2.5 C 9.925781 -3.175781 10.125 -3.925781 10.125 -4.75 C 10.125 -5.570312 9.925781 -6.316406 9.53125 -6.984375 C 9.144531 -7.648438 8.613281 -8.171875 7.9375 -8.546875 C 7.257812 -8.929688 6.503906 -9.125 5.671875 -9.125 C 4.835938 -9.125 4.082031 -8.929688 3.40625 -8.546875 C 2.738281 -8.171875 2.207031 -7.648438 1.8125 -6.984375 C 1.425781 -6.316406 1.234375 -5.570312 1.234375 -4.75 C 1.234375 -3.925781 1.425781 -3.175781 1.8125 -2.5 C 2.207031 -1.832031 2.738281 -1.304688 3.40625 -0.921875 C 4.082031 -0.546875 4.835938 -0.359375 5.671875 -0.359375 Z M 5.671875 -0.359375 "/></g></g></g><g fill="#ffffff" fill-opacity="1"><g transform="translate(146.374746, 239.561336)"><g><path d="M 8.40625 0 L 6.0625 -3.265625 C 5.75 -3.210938 5.40625 -3.1875 5.03125 -3.1875 L 2.203125 -3.1875 L 2.203125 0 L 1.734375 0 L 1.734375 -9.5 L 5.03125 -9.5 C 6.21875 -9.5 7.140625 -9.21875 7.796875 -8.65625 C 8.460938 -8.101562 8.796875 -7.332031 8.796875 -6.34375 C 8.796875 -5.582031 8.597656 -4.945312 8.203125 -4.4375 C 7.816406 -3.925781 7.257812 -3.570312 6.53125 -3.375 L 8.953125 0 Z M 5.0625 -3.609375 C 6.113281 -3.609375 6.925781 -3.84375 7.5 -4.3125 C 8.070312 -4.789062 8.359375 -5.46875 8.359375 -6.34375 C 8.359375 -7.21875 8.070312 -7.890625 7.5 -8.359375 C 6.925781 -8.835938 6.113281 -9.078125 5.0625 -9.078125 L 2.203125 -9.078125 L 2.203125 -3.609375 Z M 5.0625 -3.609375 "/></g></g></g><g fill="#ffffff" fill-opacity="1"><g transform="translate(157.209045, 239.561336)"><g><path d="M 10.78125 0 L 10.765625 -8.5625 L 6.609375 -1.3125 L 6.359375 -1.3125 L 2.1875 -8.53125 L 2.1875 0 L 1.734375 0 L 1.734375 -9.5 L 2.109375 -9.5 L 6.484375 -1.90625 L 10.84375 -9.5 L 11.21875 -9.5 L 11.234375 0 Z M 10.78125 0 "/></g></g></g><g fill="#ffffff" fill-opacity="1"><g transform="translate(171.270279, 239.561336)"><g><path d="M 7.546875 -2.78125 L 1.875 -2.78125 L 0.59375 0 L 0.09375 0 L 4.484375 -9.5 L 4.9375 -9.5 L 9.328125 0 L 8.828125 0 Z M 7.375 -3.171875 L 4.71875 -8.96875 L 2.046875 -3.171875 Z M 7.375 -3.171875 "/></g></g></g><g fill="#ffffff" fill-opacity="1"><g transform="translate(181.806293, 239.561336)"><g><path d="M 3.546875 -9.078125 L 0.046875 -9.078125 L 0.046875 -9.5 L 7.46875 -9.5 L 7.46875 -9.078125 L 3.984375 -9.078125 L 3.984375 0 L 3.546875 0 Z M 3.546875 -9.078125 "/></g></g></g><g fill="#ffffff" fill-opacity="1"><g transform="translate(190.430549, 239.561336)"><g><path d="M 1.734375 -9.5 L 2.203125 -9.5 L 2.203125 0 L 1.734375 0 Z M 1.734375 -9.5 "/></g></g></g><g fill="#ffffff" fill-opacity="1"><g transform="translate(195.461783, 239.561336)"><g><path d="M 5.671875 0.046875 C 4.742188 0.046875 3.90625 -0.15625 3.15625 -0.5625 C 2.414062 -0.976562 1.832031 -1.550781 1.40625 -2.28125 C 0.976562 -3.019531 0.765625 -3.84375 0.765625 -4.75 C 0.765625 -5.65625 0.976562 -6.472656 1.40625 -7.203125 C 1.832031 -7.929688 2.414062 -8.503906 3.15625 -8.921875 C 3.90625 -9.335938 4.742188 -9.546875 5.671875 -9.546875 C 6.585938 -9.546875 7.421875 -9.335938 8.171875 -8.921875 C 8.921875 -8.503906 9.507812 -7.929688 9.9375 -7.203125 C 10.363281 -6.472656 10.578125 -5.65625 10.578125 -4.75 C 10.578125 -3.84375 10.363281 -3.019531 9.9375 -2.28125 C 9.507812 -1.550781 8.921875 -0.976562 8.171875 -0.5625 C 7.421875 -0.15625 6.585938 0.046875 5.671875 0.046875 Z M 5.671875 -0.359375 C 6.503906 -0.359375 7.257812 -0.546875 7.9375 -0.921875 C 8.613281 -1.304688 9.144531 -1.832031 9.53125 -2.5 C 9.925781 -3.175781 10.125 -3.925781 10.125 -4.75 C 10.125 -5.570312 9.925781 -6.316406 9.53125 -6.984375 C 9.144531 -7.648438 8.613281 -8.171875 7.9375 -8.546875 C 7.257812 -8.929688 6.503906 -9.125 5.671875 -9.125 C 4.835938 -9.125 4.082031 -8.929688 3.40625 -8.546875 C 2.738281 -8.171875 2.207031 -7.648438 1.8125 -6.984375 C 1.425781 -6.316406 1.234375 -5.570312 1.234375 -4.75 C 1.234375 -3.925781 1.425781 -3.175781 1.8125 -2.5 C 2.207031 -1.832031 2.738281 -1.304688 3.40625 -0.921875 C 4.082031 -0.546875 4.835938 -0.359375 5.671875 -0.359375 Z M 5.671875 -0.359375 "/></g></g></g><g fill="#ffffff" fill-opacity="1"><g transform="translate(207.909555, 239.561336)"><g><path d="M 9.3125 -9.5 L 9.3125 0 L 8.9375 0 L 2.203125 -8.65625 L 2.203125 0 L 1.734375 0 L 1.734375 -9.5 L 2.109375 -9.5 L 8.859375 -0.84375 L 8.859375 -9.5 Z M 9.3125 -9.5 "/></g></g></g><g fill="#ffffff" fill-opacity="1"><g transform="translate(220.059037, 239.561336)"><g><path d="M 7.546875 -2.78125 L 1.875 -2.78125 L 0.59375 0 L 0.09375 0 L 4.484375 -9.5 L 4.9375 -9.5 L 9.328125 0 L 8.828125 0 Z M 7.375 -3.171875 L 4.71875 -8.96875 L 2.046875 -3.171875 Z M 7.375 -3.171875 "/></g></g></g><g fill="#ffffff" fill-opacity="1"><g transform="translate(230.595051, 239.561336)"><g><path d="M 1.734375 -9.5 L 2.203125 -9.5 L 2.203125 -0.421875 L 7.75 -0.421875 L 7.75 0 L 1.734375 0 Z M 1.734375 -9.5 "/></g></g></g><g fill="#ffffff" fill-opacity="1"><g transform="translate(239.585391, 239.561336)"><g/></g></g><g fill="#ffffff" fill-opacity="1"><g transform="translate(244.114963, 239.561336)"><g><path d="M 5.671875 0.046875 C 4.742188 0.046875 3.90625 -0.15625 3.15625 -0.5625 C 2.414062 -0.976562 1.832031 -1.550781 1.40625 -2.28125 C 0.976562 -3.019531 0.765625 -3.84375 0.765625 -4.75 C 0.765625 -5.65625 0.976562 -6.472656 1.40625 -7.203125 C 1.832031 -7.929688 2.414062 -8.503906 3.15625 -8.921875 C 3.90625 -9.335938 4.742188 -9.546875 5.671875 -9.546875 C 6.316406 -9.546875 6.925781 -9.4375 7.5 -9.21875 C 8.070312 -9.007812 8.5625 -8.695312 8.96875 -8.28125 L 8.6875 -7.984375 C 7.894531 -8.742188 6.894531 -9.125 5.6875 -9.125 C 4.851562 -9.125 4.097656 -8.929688 3.421875 -8.546875 C 2.742188 -8.160156 2.207031 -7.632812 1.8125 -6.96875 C 1.425781 -6.300781 1.234375 -5.5625 1.234375 -4.75 C 1.234375 -3.9375 1.425781 -3.191406 1.8125 -2.515625 C 2.207031 -1.847656 2.742188 -1.320312 3.421875 -0.9375 C 4.097656 -0.550781 4.851562 -0.359375 5.6875 -0.359375 C 6.882812 -0.359375 7.882812 -0.742188 8.6875 -1.515625 L 8.96875 -1.21875 C 8.5625 -0.800781 8.070312 -0.484375 7.5 -0.265625 C 6.9375 -0.0546875 6.328125 0.046875 5.671875 0.046875 Z M 5.671875 0.046875 "/></g></g></g><g fill="#ffffff" fill-opacity="1"><g transform="translate(254.881472, 239.561336)"><g><path d="M 5.671875 0.046875 C 4.742188 0.046875 3.90625 -0.15625 3.15625 -0.5625 C 2.414062 -0.976562 1.832031 -1.550781 1.40625 -2.28125 C 0.976562 -3.019531 0.765625 -3.84375 0.765625 -4.75 C 0.765625 -5.65625 0.976562 -6.472656 1.40625 -7.203125 C 1.832031 -7.929688 2.414062 -8.503906 3.15625 -8.921875 C 3.90625 -9.335938 4.742188 -9.546875 5.671875 -9.546875 C 6.585938 -9.546875 7.421875 -9.335938 8.171875 -8.921875 C 8.921875 -8.503906 9.507812 -7.929688 9.9375 -7.203125 C 10.363281 -6.472656 10.578125 -5.65625 10.578125 -4.75 C 10.578125 -3.84375 10.363281 -3.019531 9.9375 -2.28125 C 9.507812 -1.550781 8.921875 -0.976562 8.171875 -0.5625 C 7.421875 -0.15625 6.585938 0.046875 5.671875 0.046875 Z M 5.671875 -0.359375 C 6.503906 -0.359375 7.257812 -0.546875 7.9375 -0.921875 C 8.613281 -1.304688 9.144531 -1.832031 9.53125 -2.5 C 9.925781 -3.175781 10.125 -3.925781 10.125 -4.75 C 10.125 -5.570312 9.925781 -6.316406 9.53125 -6.984375 C 9.144531 -7.648438 8.613281 -8.171875 7.9375 -8.546875 C 7.257812 -8.929688 6.503906 -9.125 5.671875 -9.125 C 4.835938 -9.125 4.082031 -8.929688 3.40625 -8.546875 C 2.738281 -8.171875 2.207031 -7.648438 1.8125 -6.984375 C 1.425781 -6.316406 1.234375 -5.570312 1.234375 -4.75 C 1.234375 -3.925781 1.425781 -3.175781 1.8125 -2.5 C 2.207031 -1.832031 2.738281 -1.304688 3.40625 -0.921875 C 4.082031 -0.546875 4.835938 -0.359375 5.671875 -0.359375 Z M 5.671875 -0.359375 "/></g></g></g><g fill="#ffffff" fill-opacity="1"><g transform="translate(267.329244, 239.561336)"><g><path d="M 7.546875 -2.78125 L 1.875 -2.78125 L 0.59375 0 L 0.09375 0 L 4.484375 -9.5 L 4.9375 -9.5 L 9.328125 0 L 8.828125 0 Z M 7.375 -3.171875 L 4.71875 -8.96875 L 2.046875 -3.171875 Z M 7.375 -3.171875 "/></g></g></g><g fill="#ffffff" fill-opacity="1"><g transform="translate(277.865247, 239.561336)"><g><path d="M 5.671875 0.046875 C 4.742188 0.046875 3.90625 -0.15625 3.15625 -0.5625 C 2.414062 -0.976562 1.832031 -1.550781 1.40625 -2.28125 C 0.976562 -3.019531 0.765625 -3.84375 0.765625 -4.75 C 0.765625 -5.65625 0.976562 -6.472656 1.40625 -7.203125 C 1.832031 -7.929688 2.414062 -8.503906 3.15625 -8.921875 C 3.90625 -9.335938 4.742188 -9.546875 5.671875 -9.546875 C 6.316406 -9.546875 6.925781 -9.4375 7.5 -9.21875 C 8.070312 -9.007812 8.5625 -8.695312 8.96875 -8.28125 L 8.6875 -7.984375 C 7.894531 -8.742188 6.894531 -9.125 5.6875 -9.125 C 4.851562 -9.125 4.097656 -8.929688 3.421875 -8.546875 C 2.742188 -8.160156 2.207031 -7.632812 1.8125 -6.96875 C 1.425781 -6.300781 1.234375 -5.5625 1.234375 -4.75 C 1.234375 -3.9375 1.425781 -3.191406 1.8125 -2.515625 C 2.207031 -1.847656 2.742188 -1.320312 3.421875 -0.9375 C 4.097656 -0.550781 4.851562 -0.359375 5.6875 -0.359375 C 6.882812 -0.359375 7.882812 -0.742188 8.6875 -1.515625 L 8.96875 -1.21875 C 8.5625 -0.800781 8.070312 -0.484375 7.5 -0.265625 C 6.9375 -0.0546875 6.328125 0.046875 5.671875 0.046875 Z M 5.671875 0.046875 "/></g></g></g><g fill="#ffffff" fill-opacity="1"><g transform="translate(288.631756, 239.561336)"><g><path d="M 9.3125 -9.5 L 9.3125 0 L 8.859375 0 L 8.859375 -4.609375 L 2.203125 -4.609375 L 2.203125 0 L 1.734375 0 L 1.734375 -9.5 L 2.203125 -9.5 L 2.203125 -5.03125 L 8.859375 -5.03125 L 8.859375 -9.5 Z M 9.3125 -9.5 "/></g></g></g></svg>